<mxfile host="app.diagrams.net" modified="2022-10-02T13:23:54.209Z" agent="5.0 (Windows NT 10.0; Win64; x64) AppleWebKit/537.36 (KHTML, like Gecko) Chrome/105.0.0.0 Safari/537.36" etag="s69_yL1QeaTyyG_FqqCF" version="20.3.6" type="github">
  <diagram id="mCyr1kptdM3YggUfpTlr" name="Page-1">
    <mxGraphModel dx="700" dy="1795" grid="1" gridSize="10" guides="1" tooltips="1" connect="1" arrows="1" fold="1" page="1" pageScale="1" pageWidth="850" pageHeight="1100" math="0" shadow="0">
      <root>
        <mxCell id="0" />
        <mxCell id="1" parent="0" />
        <mxCell id="PgPLIks2DuXTOB3lS5mg-1" value="Користувач" style="swimlane;fontStyle=0;childLayout=stackLayout;horizontal=1;startSize=26;fillColor=none;horizontalStack=0;resizeParent=1;resizeParentMax=0;resizeLast=0;collapsible=1;marginBottom=0;" parent="1" vertex="1">
          <mxGeometry x="310" y="-440" width="140" height="166" as="geometry">
            <mxRectangle x="260" y="-440" width="100" height="30" as="alternateBounds" />
          </mxGeometry>
        </mxCell>
        <mxCell id="PgPLIks2DuXTOB3lS5mg-2" value="Нікнейм " style="text;strokeColor=none;fillColor=none;align=left;verticalAlign=top;spacingLeft=4;spacingRight=4;overflow=hidden;rotatable=0;points=[[0,0.5],[1,0.5]];portConstraint=eastwest;" parent="PgPLIks2DuXTOB3lS5mg-1" vertex="1">
          <mxGeometry y="26" width="140" height="26" as="geometry" />
        </mxCell>
        <mxCell id="PgPLIks2DuXTOB3lS5mg-3" value="Пароль" style="text;strokeColor=none;fillColor=none;align=left;verticalAlign=top;spacingLeft=4;spacingRight=4;overflow=hidden;rotatable=0;points=[[0,0.5],[1,0.5]];portConstraint=eastwest;" parent="PgPLIks2DuXTOB3lS5mg-1" vertex="1">
          <mxGeometry y="52" width="140" height="26" as="geometry" />
        </mxCell>
        <mxCell id="PgPLIks2DuXTOB3lS5mg-4" value="Пошта " style="text;strokeColor=none;fillColor=none;align=left;verticalAlign=top;spacingLeft=4;spacingRight=4;overflow=hidden;rotatable=0;points=[[0,0.5],[1,0.5]];portConstraint=eastwest;" parent="PgPLIks2DuXTOB3lS5mg-1" vertex="1">
          <mxGeometry y="78" width="140" height="26" as="geometry" />
        </mxCell>
        <mxCell id="PgPLIks2DuXTOB3lS5mg-5" value="Оцінка психічного &#xa;здоров&#39;я" style="text;strokeColor=none;fillColor=none;align=left;verticalAlign=top;spacingLeft=4;spacingRight=4;overflow=hidden;rotatable=0;points=[[0,0.5],[1,0.5]];portConstraint=eastwest;" parent="PgPLIks2DuXTOB3lS5mg-1" vertex="1">
          <mxGeometry y="104" width="140" height="36" as="geometry" />
        </mxCell>
        <mxCell id="PgPLIks2DuXTOB3lS5mg-6" value="Оцінка сну" style="text;strokeColor=none;fillColor=none;align=left;verticalAlign=top;spacingLeft=4;spacingRight=4;overflow=hidden;rotatable=0;points=[[0,0.5],[1,0.5]];portConstraint=eastwest;" parent="PgPLIks2DuXTOB3lS5mg-1" vertex="1">
          <mxGeometry y="140" width="140" height="26" as="geometry" />
        </mxCell>
        <mxCell id="PgPLIks2DuXTOB3lS5mg-7" value="Сон" style="swimlane;fontStyle=0;childLayout=stackLayout;horizontal=1;startSize=26;fillColor=none;horizontalStack=0;resizeParent=1;resizeParentMax=0;resizeLast=0;collapsible=1;marginBottom=0;" parent="1" vertex="1">
          <mxGeometry x="40" y="-300" width="140" height="104" as="geometry" />
        </mxCell>
        <mxCell id="PgPLIks2DuXTOB3lS5mg-8" value="Кількість годин сну" style="text;strokeColor=none;fillColor=none;align=left;verticalAlign=top;spacingLeft=4;spacingRight=4;overflow=hidden;rotatable=0;points=[[0,0.5],[1,0.5]];portConstraint=eastwest;" parent="PgPLIks2DuXTOB3lS5mg-7" vertex="1">
          <mxGeometry y="26" width="140" height="26" as="geometry" />
        </mxCell>
        <mxCell id="PgPLIks2DuXTOB3lS5mg-9" value="Якість сну" style="text;strokeColor=none;fillColor=none;align=left;verticalAlign=top;spacingLeft=4;spacingRight=4;overflow=hidden;rotatable=0;points=[[0,0.5],[1,0.5]];portConstraint=eastwest;" parent="PgPLIks2DuXTOB3lS5mg-7" vertex="1">
          <mxGeometry y="52" width="140" height="26" as="geometry" />
        </mxCell>
        <mxCell id="PgPLIks2DuXTOB3lS5mg-20" value="Дата" style="text;strokeColor=none;fillColor=none;align=left;verticalAlign=top;spacingLeft=4;spacingRight=4;overflow=hidden;rotatable=0;points=[[0,0.5],[1,0.5]];portConstraint=eastwest;" parent="PgPLIks2DuXTOB3lS5mg-7" vertex="1">
          <mxGeometry y="78" width="140" height="26" as="geometry" />
        </mxCell>
        <mxCell id="PgPLIks2DuXTOB3lS5mg-13" value="Психологічне здоров&#39;я" style="swimlane;fontStyle=0;childLayout=stackLayout;horizontal=1;startSize=26;fillColor=none;horizontalStack=0;resizeParent=1;resizeParentMax=0;resizeLast=0;collapsible=1;marginBottom=0;" parent="1" vertex="1">
          <mxGeometry x="320" y="-150" width="140" height="104" as="geometry" />
        </mxCell>
        <mxCell id="PgPLIks2DuXTOB3lS5mg-14" value="Психологічний стан" style="text;strokeColor=none;fillColor=none;align=left;verticalAlign=top;spacingLeft=4;spacingRight=4;overflow=hidden;rotatable=0;points=[[0,0.5],[1,0.5]];portConstraint=eastwest;" parent="PgPLIks2DuXTOB3lS5mg-13" vertex="1">
          <mxGeometry y="26" width="140" height="26" as="geometry" />
        </mxCell>
        <mxCell id="PgPLIks2DuXTOB3lS5mg-15" value="Емоційний стан" style="text;strokeColor=none;fillColor=none;align=left;verticalAlign=top;spacingLeft=4;spacingRight=4;overflow=hidden;rotatable=0;points=[[0,0.5],[1,0.5]];portConstraint=eastwest;" parent="PgPLIks2DuXTOB3lS5mg-13" vertex="1">
          <mxGeometry y="52" width="140" height="26" as="geometry" />
        </mxCell>
        <mxCell id="PgPLIks2DuXTOB3lS5mg-18" value="Дата" style="text;strokeColor=none;fillColor=none;align=left;verticalAlign=top;spacingLeft=4;spacingRight=4;overflow=hidden;rotatable=0;points=[[0,0.5],[1,0.5]];portConstraint=eastwest;" parent="PgPLIks2DuXTOB3lS5mg-13" vertex="1">
          <mxGeometry y="78" width="140" height="26" as="geometry" />
        </mxCell>
        <mxCell id="PgPLIks2DuXTOB3lS5mg-22" value="Інформація" style="swimlane;fontStyle=0;childLayout=stackLayout;horizontal=1;startSize=26;fillColor=none;horizontalStack=0;resizeParent=1;resizeParentMax=0;resizeLast=0;collapsible=1;marginBottom=0;" parent="1" vertex="1">
          <mxGeometry x="560" y="-440" width="140" height="156" as="geometry" />
        </mxCell>
        <mxCell id="PgPLIks2DuXTOB3lS5mg-23" value="Відео" style="text;strokeColor=none;fillColor=none;align=left;verticalAlign=top;spacingLeft=4;spacingRight=4;overflow=hidden;rotatable=0;points=[[0,0.5],[1,0.5]];portConstraint=eastwest;" parent="PgPLIks2DuXTOB3lS5mg-22" vertex="1">
          <mxGeometry y="26" width="140" height="26" as="geometry" />
        </mxCell>
        <mxCell id="PgPLIks2DuXTOB3lS5mg-24" value="Статті" style="text;strokeColor=none;fillColor=none;align=left;verticalAlign=top;spacingLeft=4;spacingRight=4;overflow=hidden;rotatable=0;points=[[0,0.5],[1,0.5]];portConstraint=eastwest;" parent="PgPLIks2DuXTOB3lS5mg-22" vertex="1">
          <mxGeometry y="52" width="140" height="26" as="geometry" />
        </mxCell>
        <mxCell id="PgPLIks2DuXTOB3lS5mg-25" value="Новини " style="text;strokeColor=none;fillColor=none;align=left;verticalAlign=top;spacingLeft=4;spacingRight=4;overflow=hidden;rotatable=0;points=[[0,0.5],[1,0.5]];portConstraint=eastwest;" parent="PgPLIks2DuXTOB3lS5mg-22" vertex="1">
          <mxGeometry y="78" width="140" height="26" as="geometry" />
        </mxCell>
        <mxCell id="PgPLIks2DuXTOB3lS5mg-26" value="Підтримка" style="text;strokeColor=none;fillColor=none;align=left;verticalAlign=top;spacingLeft=4;spacingRight=4;overflow=hidden;rotatable=0;points=[[0,0.5],[1,0.5]];portConstraint=eastwest;" parent="PgPLIks2DuXTOB3lS5mg-22" vertex="1">
          <mxGeometry y="104" width="140" height="26" as="geometry" />
        </mxCell>
        <mxCell id="PgPLIks2DuXTOB3lS5mg-27" value="Курси" style="text;strokeColor=none;fillColor=none;align=left;verticalAlign=top;spacingLeft=4;spacingRight=4;overflow=hidden;rotatable=0;points=[[0,0.5],[1,0.5]];portConstraint=eastwest;" parent="PgPLIks2DuXTOB3lS5mg-22" vertex="1">
          <mxGeometry y="130" width="140" height="26" as="geometry" />
        </mxCell>
        <mxCell id="PgPLIks2DuXTOB3lS5mg-28" value="Курси" style="swimlane;fontStyle=0;childLayout=stackLayout;horizontal=1;startSize=26;fillColor=none;horizontalStack=0;resizeParent=1;resizeParentMax=0;resizeLast=0;collapsible=1;marginBottom=0;" parent="1" vertex="1">
          <mxGeometry x="590" y="-210" width="140" height="104" as="geometry" />
        </mxCell>
        <mxCell id="PgPLIks2DuXTOB3lS5mg-29" value="Ім&#39;я викладача" style="text;strokeColor=none;fillColor=none;align=left;verticalAlign=top;spacingLeft=4;spacingRight=4;overflow=hidden;rotatable=0;points=[[0,0.5],[1,0.5]];portConstraint=eastwest;" parent="PgPLIks2DuXTOB3lS5mg-28" vertex="1">
          <mxGeometry y="26" width="140" height="26" as="geometry" />
        </mxCell>
        <mxCell id="PgPLIks2DuXTOB3lS5mg-30" value="Опис курсу" style="text;strokeColor=none;fillColor=none;align=left;verticalAlign=top;spacingLeft=4;spacingRight=4;overflow=hidden;rotatable=0;points=[[0,0.5],[1,0.5]];portConstraint=eastwest;" parent="PgPLIks2DuXTOB3lS5mg-28" vertex="1">
          <mxGeometry y="52" width="140" height="26" as="geometry" />
        </mxCell>
        <mxCell id="PgPLIks2DuXTOB3lS5mg-31" value="Дані сеансу" style="text;strokeColor=none;fillColor=none;align=left;verticalAlign=top;spacingLeft=4;spacingRight=4;overflow=hidden;rotatable=0;points=[[0,0.5],[1,0.5]];portConstraint=eastwest;" parent="PgPLIks2DuXTOB3lS5mg-28" vertex="1">
          <mxGeometry y="78" width="140" height="26" as="geometry" />
        </mxCell>
        <mxCell id="PgPLIks2DuXTOB3lS5mg-36" value="" style="endArrow=none;html=1;endSize=12;startArrow=diamondThin;startSize=18;startFill=0;exitX=0;exitY=0.5;exitDx=0;exitDy=0;entryX=1.014;entryY=0.144;entryDx=0;entryDy=0;entryPerimeter=0;" parent="1" source="PgPLIks2DuXTOB3lS5mg-6" target="PgPLIks2DuXTOB3lS5mg-7" edge="1">
          <mxGeometry relative="1" as="geometry">
            <mxPoint x="310" y="-294" as="sourcePoint" />
            <mxPoint x="190" y="-284" as="targetPoint" />
          </mxGeometry>
        </mxCell>
        <mxCell id="PgPLIks2DuXTOB3lS5mg-37" value="1" style="edgeLabel;resizable=0;html=1;align=right;verticalAlign=top;" parent="PgPLIks2DuXTOB3lS5mg-36" connectable="0" vertex="1">
          <mxGeometry x="1" relative="1" as="geometry">
            <mxPoint x="108" y="-5" as="offset" />
          </mxGeometry>
        </mxCell>
        <mxCell id="PgPLIks2DuXTOB3lS5mg-38" value="*" style="edgeLabel;html=1;align=center;verticalAlign=middle;resizable=0;points=[];" parent="PgPLIks2DuXTOB3lS5mg-36" vertex="1" connectable="0">
          <mxGeometry x="0.7641" y="5" relative="1" as="geometry">
            <mxPoint x="-4" y="6" as="offset" />
          </mxGeometry>
        </mxCell>
        <mxCell id="PgPLIks2DuXTOB3lS5mg-39" value="" style="endArrow=none;html=1;endSize=12;startArrow=diamondThin;startSize=18;startFill=0;exitX=0.757;exitY=1.077;exitDx=0;exitDy=0;entryX=0.693;entryY=-0.038;entryDx=0;entryDy=0;entryPerimeter=0;exitPerimeter=0;" parent="1" source="PgPLIks2DuXTOB3lS5mg-6" target="PgPLIks2DuXTOB3lS5mg-13" edge="1">
          <mxGeometry relative="1" as="geometry">
            <mxPoint x="420" y="-196" as="sourcePoint" />
            <mxPoint x="291.96000000000004" y="-194.0239999999999" as="targetPoint" />
          </mxGeometry>
        </mxCell>
        <mxCell id="PgPLIks2DuXTOB3lS5mg-40" value="1" style="edgeLabel;resizable=0;html=1;align=right;verticalAlign=top;" parent="PgPLIks2DuXTOB3lS5mg-39" connectable="0" vertex="1">
          <mxGeometry x="1" relative="1" as="geometry">
            <mxPoint x="13" y="-106" as="offset" />
          </mxGeometry>
        </mxCell>
        <mxCell id="PgPLIks2DuXTOB3lS5mg-41" value="*" style="edgeLabel;html=1;align=center;verticalAlign=middle;resizable=0;points=[];" parent="PgPLIks2DuXTOB3lS5mg-39" vertex="1" connectable="0">
          <mxGeometry x="0.7641" y="5" relative="1" as="geometry">
            <mxPoint x="4" y="6" as="offset" />
          </mxGeometry>
        </mxCell>
        <mxCell id="PgPLIks2DuXTOB3lS5mg-42" value="" style="endArrow=none;html=1;startSize=12;startArrow=open;startFill=0;entryX=-0.029;entryY=0.102;entryDx=0;entryDy=0;exitX=0.5;exitY=0;exitDx=0;exitDy=0;entryPerimeter=0;" parent="1" source="PgPLIks2DuXTOB3lS5mg-7" target="PgPLIks2DuXTOB3lS5mg-1" edge="1">
          <mxGeometry relative="1" as="geometry">
            <mxPoint x="260" y="-406" as="sourcePoint" />
            <mxPoint x="160" y="-410" as="targetPoint" />
            <Array as="points">
              <mxPoint x="110" y="-423" />
            </Array>
          </mxGeometry>
        </mxCell>
        <mxCell id="PgPLIks2DuXTOB3lS5mg-43" value="*" style="edgeLabel;resizable=0;html=1;align=left;verticalAlign=bottom;" parent="PgPLIks2DuXTOB3lS5mg-42" connectable="0" vertex="1">
          <mxGeometry x="-1" relative="1" as="geometry">
            <mxPoint x="10" y="-20" as="offset" />
          </mxGeometry>
        </mxCell>
        <mxCell id="PgPLIks2DuXTOB3lS5mg-44" value="1" style="edgeLabel;resizable=0;html=1;align=right;verticalAlign=bottom;" parent="PgPLIks2DuXTOB3lS5mg-42" connectable="0" vertex="1">
          <mxGeometry x="1" relative="1" as="geometry">
            <mxPoint x="-6" y="25" as="offset" />
          </mxGeometry>
        </mxCell>
        <mxCell id="PgPLIks2DuXTOB3lS5mg-45" value="Записує та переглядає" style="edgeLabel;html=1;align=center;verticalAlign=middle;resizable=0;points=[];" parent="PgPLIks2DuXTOB3lS5mg-42" vertex="1" connectable="0">
          <mxGeometry x="0.1697" y="2" relative="1" as="geometry">
            <mxPoint y="-13" as="offset" />
          </mxGeometry>
        </mxCell>
        <mxCell id="PgPLIks2DuXTOB3lS5mg-46" value="" style="endArrow=none;html=1;startSize=12;startArrow=open;startFill=0;exitX=0.25;exitY=0;exitDx=0;exitDy=0;entryX=0.307;entryY=1.231;entryDx=0;entryDy=0;entryPerimeter=0;" parent="1" source="PgPLIks2DuXTOB3lS5mg-13" target="PgPLIks2DuXTOB3lS5mg-6" edge="1">
          <mxGeometry relative="1" as="geometry">
            <mxPoint x="360" y="-180" as="sourcePoint" />
            <mxPoint x="360" y="-274" as="targetPoint" />
          </mxGeometry>
        </mxCell>
        <mxCell id="PgPLIks2DuXTOB3lS5mg-47" value="1" style="edgeLabel;resizable=0;html=1;align=left;verticalAlign=bottom;" parent="PgPLIks2DuXTOB3lS5mg-46" connectable="0" vertex="1">
          <mxGeometry x="-1" relative="1" as="geometry">
            <mxPoint x="5" y="-100" as="offset" />
          </mxGeometry>
        </mxCell>
        <mxCell id="PgPLIks2DuXTOB3lS5mg-48" value="*" style="edgeLabel;resizable=0;html=1;align=right;verticalAlign=bottom;" parent="PgPLIks2DuXTOB3lS5mg-46" connectable="0" vertex="1">
          <mxGeometry x="1" relative="1" as="geometry">
            <mxPoint x="13" y="108" as="offset" />
          </mxGeometry>
        </mxCell>
        <mxCell id="PgPLIks2DuXTOB3lS5mg-49" value="Переглядає" style="edgeLabel;html=1;align=center;verticalAlign=middle;resizable=0;points=[];" parent="PgPLIks2DuXTOB3lS5mg-46" vertex="1" connectable="0">
          <mxGeometry x="0.1697" y="2" relative="1" as="geometry">
            <mxPoint y="9" as="offset" />
          </mxGeometry>
        </mxCell>
        <mxCell id="PgPLIks2DuXTOB3lS5mg-53" value="" style="endArrow=none;html=1;startSize=12;startArrow=open;startFill=0;entryX=1;entryY=0.12;entryDx=0;entryDy=0;exitX=-0.021;exitY=0.147;exitDx=0;exitDy=0;entryPerimeter=0;exitPerimeter=0;" parent="1" source="PgPLIks2DuXTOB3lS5mg-22" target="PgPLIks2DuXTOB3lS5mg-1" edge="1">
          <mxGeometry relative="1" as="geometry">
            <mxPoint x="550" y="-396" as="sourcePoint" />
            <mxPoint x="450" y="-400" as="targetPoint" />
          </mxGeometry>
        </mxCell>
        <mxCell id="PgPLIks2DuXTOB3lS5mg-54" value="*" style="edgeLabel;resizable=0;html=1;align=left;verticalAlign=bottom;" parent="PgPLIks2DuXTOB3lS5mg-53" connectable="0" vertex="1">
          <mxGeometry x="-1" relative="1" as="geometry">
            <mxPoint x="-12" y="20" as="offset" />
          </mxGeometry>
        </mxCell>
        <mxCell id="PgPLIks2DuXTOB3lS5mg-55" value="*" style="edgeLabel;resizable=0;html=1;align=right;verticalAlign=bottom;" parent="PgPLIks2DuXTOB3lS5mg-53" connectable="0" vertex="1">
          <mxGeometry x="1" relative="1" as="geometry">
            <mxPoint x="10" y="25" as="offset" />
          </mxGeometry>
        </mxCell>
        <mxCell id="PgPLIks2DuXTOB3lS5mg-56" value="Одержує" style="edgeLabel;html=1;align=center;verticalAlign=middle;resizable=0;points=[];" parent="PgPLIks2DuXTOB3lS5mg-53" vertex="1" connectable="0">
          <mxGeometry x="0.1697" y="2" relative="1" as="geometry">
            <mxPoint y="-13" as="offset" />
          </mxGeometry>
        </mxCell>
        <mxCell id="PgPLIks2DuXTOB3lS5mg-58" value="" style="endArrow=block;endSize=16;endFill=0;html=1;exitX=0.5;exitY=0;exitDx=0;exitDy=0;" parent="1" source="PgPLIks2DuXTOB3lS5mg-28" edge="1">
          <mxGeometry x="0.0073" y="-8" width="160" relative="1" as="geometry">
            <mxPoint x="660" y="-234" as="sourcePoint" />
            <mxPoint x="660" y="-280" as="targetPoint" />
            <mxPoint as="offset" />
          </mxGeometry>
        </mxCell>
        <mxCell id="PgPLIks2DuXTOB3lS5mg-63" value="" style="endArrow=none;html=1;startSize=12;startArrow=open;startFill=0;exitX=0.001;exitY=0.817;exitDx=0;exitDy=0;exitPerimeter=0;" parent="1" source="PgPLIks2DuXTOB3lS5mg-30" edge="1">
          <mxGeometry relative="1" as="geometry">
            <mxPoint x="580" y="-145" as="sourcePoint" />
            <mxPoint x="460" y="-137" as="targetPoint" />
          </mxGeometry>
        </mxCell>
        <mxCell id="PgPLIks2DuXTOB3lS5mg-64" value="1" style="edgeLabel;resizable=0;html=1;align=left;verticalAlign=bottom;" parent="PgPLIks2DuXTOB3lS5mg-63" connectable="0" vertex="1">
          <mxGeometry x="-1" relative="1" as="geometry">
            <mxPoint x="-12" y="20" as="offset" />
          </mxGeometry>
        </mxCell>
        <mxCell id="PgPLIks2DuXTOB3lS5mg-65" value="*" style="edgeLabel;resizable=0;html=1;align=right;verticalAlign=bottom;" parent="PgPLIks2DuXTOB3lS5mg-63" connectable="0" vertex="1">
          <mxGeometry x="1" relative="1" as="geometry">
            <mxPoint x="10" y="25" as="offset" />
          </mxGeometry>
        </mxCell>
        <mxCell id="PgPLIks2DuXTOB3lS5mg-66" value="Надає" style="edgeLabel;html=1;align=center;verticalAlign=middle;resizable=0;points=[];" parent="PgPLIks2DuXTOB3lS5mg-63" vertex="1" connectable="0">
          <mxGeometry x="0.1697" y="2" relative="1" as="geometry">
            <mxPoint y="-13" as="offset" />
          </mxGeometry>
        </mxCell>
      </root>
    </mxGraphModel>
  </diagram>
</mxfile>
